<mxfile host="drawio-plugin" modified="2022-12-16T12:20:22.095Z" agent="5.0 (X11; Linux x86_64) AppleWebKit/537.36 (KHTML, like Gecko) Chrome/98.0.4758.102 Safari/537.36" etag="_DOJ5RGlAGsmi_iUHaDA" version="15.5.4" type="embed"><diagram id="23iRSUPoRavnBvh4doch" name="Domain"><mxGraphModel dx="617" dy="556" grid="1" gridSize="10" guides="1" tooltips="1" connect="1" arrows="1" fold="1" page="1" pageScale="1" pageWidth="827" pageHeight="1169" math="0" shadow="0"><root><mxCell id="0"/><mxCell id="1" parent="0"/></root></mxGraphModel></diagram></mxfile>